<mxfile host="app.diagrams.net" modified="2023-12-13T15:30:22.584Z" agent="Mozilla/5.0 (Windows NT 10.0; Win64; x64) AppleWebKit/537.36 (KHTML, like Gecko) Chrome/119.0.0.0 Safari/537.36 OPR/105.0.0.0" etag="yHseHo1B2R2rzICDCqMz" version="22.1.8" type="device">
  <diagram name="Page-1" id="wdJt0pxGgvfPHoXLSyuH">
    <mxGraphModel dx="2576" dy="1146" grid="1" gridSize="10" guides="1" tooltips="1" connect="1" arrows="1" fold="1" page="1" pageScale="1" pageWidth="850" pageHeight="1100" math="0" shadow="0">
      <root>
        <mxCell id="0" />
        <mxCell id="1" parent="0" />
        <mxCell id="ZVdVgWJEwp958iqfZfSC-15" style="edgeStyle=orthogonalEdgeStyle;rounded=0;orthogonalLoop=1;jettySize=auto;html=1;exitX=0.5;exitY=1;exitDx=0;exitDy=0;exitPerimeter=0;" edge="1" parent="1" source="ZVdVgWJEwp958iqfZfSC-1" target="ZVdVgWJEwp958iqfZfSC-2">
          <mxGeometry relative="1" as="geometry" />
        </mxCell>
        <mxCell id="ZVdVgWJEwp958iqfZfSC-1" value="&lt;font style=&quot;font-size: 24px;&quot;&gt;START&lt;/font&gt;" style="strokeWidth=2;html=1;shape=mxgraph.flowchart.terminator;whiteSpace=wrap;" vertex="1" parent="1">
          <mxGeometry x="50" y="80" width="180" height="90" as="geometry" />
        </mxCell>
        <mxCell id="ZVdVgWJEwp958iqfZfSC-12" style="edgeStyle=orthogonalEdgeStyle;rounded=0;orthogonalLoop=1;jettySize=auto;html=1;exitX=0.5;exitY=1;exitDx=0;exitDy=0;entryX=0.5;entryY=0;entryDx=0;entryDy=0;" edge="1" parent="1" source="ZVdVgWJEwp958iqfZfSC-2" target="ZVdVgWJEwp958iqfZfSC-3">
          <mxGeometry relative="1" as="geometry" />
        </mxCell>
        <mxCell id="ZVdVgWJEwp958iqfZfSC-2" value="&lt;font style=&quot;font-size: 18px;&quot;&gt;Input &lt;b&gt;Email &amp;amp; Password&lt;/b&gt;&lt;/font&gt;" style="shape=parallelogram;perimeter=parallelogramPerimeter;whiteSpace=wrap;html=1;fixedSize=1;" vertex="1" parent="1">
          <mxGeometry x="15" y="250" width="250" height="100" as="geometry" />
        </mxCell>
        <mxCell id="ZVdVgWJEwp958iqfZfSC-13" style="edgeStyle=orthogonalEdgeStyle;rounded=0;orthogonalLoop=1;jettySize=auto;html=1;exitX=1;exitY=0.5;exitDx=0;exitDy=0;entryX=0;entryY=0.5;entryDx=0;entryDy=0;" edge="1" parent="1" source="ZVdVgWJEwp958iqfZfSC-3" target="ZVdVgWJEwp958iqfZfSC-9">
          <mxGeometry relative="1" as="geometry" />
        </mxCell>
        <mxCell id="ZVdVgWJEwp958iqfZfSC-14" style="edgeStyle=orthogonalEdgeStyle;rounded=0;orthogonalLoop=1;jettySize=auto;html=1;exitX=0.5;exitY=1;exitDx=0;exitDy=0;entryX=0.5;entryY=0;entryDx=0;entryDy=0;" edge="1" parent="1" source="ZVdVgWJEwp958iqfZfSC-3" target="ZVdVgWJEwp958iqfZfSC-4">
          <mxGeometry relative="1" as="geometry" />
        </mxCell>
        <mxCell id="ZVdVgWJEwp958iqfZfSC-3" value="&lt;font style=&quot;font-size: 18px;&quot;&gt;Cek &lt;b&gt;Email &amp;amp; Password&lt;/b&gt;&lt;/font&gt;" style="rhombus;whiteSpace=wrap;html=1;" vertex="1" parent="1">
          <mxGeometry x="60" y="410" width="160" height="160" as="geometry" />
        </mxCell>
        <mxCell id="ZVdVgWJEwp958iqfZfSC-4" value="&lt;font style=&quot;font-size: 18px;&quot;&gt;Tampilkan Pesan&lt;br&gt;&quot;Berhasil Masuk&quot;&lt;/font&gt;" style="shape=parallelogram;perimeter=parallelogramPerimeter;whiteSpace=wrap;html=1;fixedSize=1;" vertex="1" parent="1">
          <mxGeometry x="15" y="610" width="250" height="100" as="geometry" />
        </mxCell>
        <mxCell id="ZVdVgWJEwp958iqfZfSC-5" value="&lt;font style=&quot;font-size: 24px;&quot;&gt;STOP&lt;/font&gt;" style="strokeWidth=2;html=1;shape=mxgraph.flowchart.terminator;whiteSpace=wrap;" vertex="1" parent="1">
          <mxGeometry x="50" y="770" width="180" height="90" as="geometry" />
        </mxCell>
        <mxCell id="ZVdVgWJEwp958iqfZfSC-6" style="edgeStyle=orthogonalEdgeStyle;rounded=0;orthogonalLoop=1;jettySize=auto;html=1;exitX=0.5;exitY=1;exitDx=0;exitDy=0;entryX=0.5;entryY=0;entryDx=0;entryDy=0;entryPerimeter=0;" edge="1" parent="1" source="ZVdVgWJEwp958iqfZfSC-4" target="ZVdVgWJEwp958iqfZfSC-5">
          <mxGeometry relative="1" as="geometry" />
        </mxCell>
        <mxCell id="ZVdVgWJEwp958iqfZfSC-11" style="edgeStyle=orthogonalEdgeStyle;rounded=0;orthogonalLoop=1;jettySize=auto;html=1;exitX=0.5;exitY=0;exitDx=0;exitDy=0;entryX=1;entryY=0.5;entryDx=0;entryDy=0;" edge="1" parent="1" source="ZVdVgWJEwp958iqfZfSC-9" target="ZVdVgWJEwp958iqfZfSC-2">
          <mxGeometry relative="1" as="geometry">
            <Array as="points">
              <mxPoint x="425" y="300" />
            </Array>
          </mxGeometry>
        </mxCell>
        <mxCell id="ZVdVgWJEwp958iqfZfSC-9" value="&lt;font style=&quot;font-size: 18px;&quot;&gt;Tampilkan Pesan&lt;br&gt;&quot;Username &amp;amp; Password Salah&quot;&lt;/font&gt;" style="shape=parallelogram;perimeter=parallelogramPerimeter;whiteSpace=wrap;html=1;fixedSize=1;" vertex="1" parent="1">
          <mxGeometry x="300" y="440" width="310" height="100" as="geometry" />
        </mxCell>
        <mxCell id="ZVdVgWJEwp958iqfZfSC-16" style="edgeStyle=orthogonalEdgeStyle;rounded=0;orthogonalLoop=1;jettySize=auto;html=1;exitX=0.5;exitY=1;exitDx=0;exitDy=0;exitPerimeter=0;" edge="1" parent="1" source="ZVdVgWJEwp958iqfZfSC-17" target="ZVdVgWJEwp958iqfZfSC-19">
          <mxGeometry relative="1" as="geometry" />
        </mxCell>
        <mxCell id="ZVdVgWJEwp958iqfZfSC-17" value="&lt;font style=&quot;font-size: 24px;&quot;&gt;START&lt;/font&gt;" style="strokeWidth=2;html=1;shape=mxgraph.flowchart.terminator;whiteSpace=wrap;" vertex="1" parent="1">
          <mxGeometry x="785" y="100" width="180" height="90" as="geometry" />
        </mxCell>
        <mxCell id="ZVdVgWJEwp958iqfZfSC-18" style="edgeStyle=orthogonalEdgeStyle;rounded=0;orthogonalLoop=1;jettySize=auto;html=1;exitX=0.5;exitY=1;exitDx=0;exitDy=0;entryX=0.5;entryY=0;entryDx=0;entryDy=0;" edge="1" parent="1" source="ZVdVgWJEwp958iqfZfSC-19" target="ZVdVgWJEwp958iqfZfSC-22">
          <mxGeometry relative="1" as="geometry" />
        </mxCell>
        <mxCell id="ZVdVgWJEwp958iqfZfSC-19" value="&lt;span style=&quot;font-size: 18px;&quot;&gt;Pilih Login Google&lt;/span&gt;" style="shape=parallelogram;perimeter=parallelogramPerimeter;whiteSpace=wrap;html=1;fixedSize=1;" vertex="1" parent="1">
          <mxGeometry x="750" y="270" width="250" height="100" as="geometry" />
        </mxCell>
        <mxCell id="ZVdVgWJEwp958iqfZfSC-20" style="edgeStyle=orthogonalEdgeStyle;rounded=0;orthogonalLoop=1;jettySize=auto;html=1;exitX=1;exitY=0.5;exitDx=0;exitDy=0;entryX=0;entryY=0.5;entryDx=0;entryDy=0;" edge="1" parent="1" source="ZVdVgWJEwp958iqfZfSC-22" target="ZVdVgWJEwp958iqfZfSC-27">
          <mxGeometry relative="1" as="geometry" />
        </mxCell>
        <mxCell id="ZVdVgWJEwp958iqfZfSC-21" style="edgeStyle=orthogonalEdgeStyle;rounded=0;orthogonalLoop=1;jettySize=auto;html=1;exitX=0.5;exitY=1;exitDx=0;exitDy=0;entryX=0.5;entryY=0;entryDx=0;entryDy=0;" edge="1" parent="1" source="ZVdVgWJEwp958iqfZfSC-22" target="ZVdVgWJEwp958iqfZfSC-23">
          <mxGeometry relative="1" as="geometry" />
        </mxCell>
        <mxCell id="ZVdVgWJEwp958iqfZfSC-22" value="&lt;font style=&quot;font-size: 18px;&quot;&gt;Cek &lt;b&gt;Google Account &amp;amp; DB&lt;/b&gt;&lt;/font&gt;" style="rhombus;whiteSpace=wrap;html=1;" vertex="1" parent="1">
          <mxGeometry x="795" y="430" width="160" height="160" as="geometry" />
        </mxCell>
        <mxCell id="ZVdVgWJEwp958iqfZfSC-23" value="&lt;font style=&quot;font-size: 18px;&quot;&gt;Tampilkan Pesan&lt;br&gt;&quot;Berhasil Masuk&quot;&lt;/font&gt;" style="shape=parallelogram;perimeter=parallelogramPerimeter;whiteSpace=wrap;html=1;fixedSize=1;" vertex="1" parent="1">
          <mxGeometry x="750" y="630" width="250" height="100" as="geometry" />
        </mxCell>
        <mxCell id="ZVdVgWJEwp958iqfZfSC-24" value="&lt;font style=&quot;font-size: 24px;&quot;&gt;STOP&lt;/font&gt;" style="strokeWidth=2;html=1;shape=mxgraph.flowchart.terminator;whiteSpace=wrap;" vertex="1" parent="1">
          <mxGeometry x="785" y="790" width="180" height="90" as="geometry" />
        </mxCell>
        <mxCell id="ZVdVgWJEwp958iqfZfSC-25" style="edgeStyle=orthogonalEdgeStyle;rounded=0;orthogonalLoop=1;jettySize=auto;html=1;exitX=0.5;exitY=1;exitDx=0;exitDy=0;entryX=0.5;entryY=0;entryDx=0;entryDy=0;entryPerimeter=0;" edge="1" parent="1" source="ZVdVgWJEwp958iqfZfSC-23" target="ZVdVgWJEwp958iqfZfSC-24">
          <mxGeometry relative="1" as="geometry" />
        </mxCell>
        <mxCell id="ZVdVgWJEwp958iqfZfSC-26" style="edgeStyle=orthogonalEdgeStyle;rounded=0;orthogonalLoop=1;jettySize=auto;html=1;exitX=0.5;exitY=0;exitDx=0;exitDy=0;entryX=1;entryY=0.5;entryDx=0;entryDy=0;" edge="1" parent="1" source="ZVdVgWJEwp958iqfZfSC-27" target="ZVdVgWJEwp958iqfZfSC-19">
          <mxGeometry relative="1" as="geometry">
            <Array as="points">
              <mxPoint x="1160" y="320" />
            </Array>
          </mxGeometry>
        </mxCell>
        <mxCell id="ZVdVgWJEwp958iqfZfSC-27" value="&lt;font style=&quot;font-size: 18px;&quot;&gt;Tampilkan Pesan&lt;br&gt;&quot;Akun Tidak Terdaftar&quot;&lt;/font&gt;" style="shape=parallelogram;perimeter=parallelogramPerimeter;whiteSpace=wrap;html=1;fixedSize=1;" vertex="1" parent="1">
          <mxGeometry x="1035" y="460" width="310" height="100" as="geometry" />
        </mxCell>
        <mxCell id="ZVdVgWJEwp958iqfZfSC-28" style="edgeStyle=orthogonalEdgeStyle;rounded=0;orthogonalLoop=1;jettySize=auto;html=1;exitX=0.5;exitY=1;exitDx=0;exitDy=0;exitPerimeter=0;" edge="1" parent="1" source="ZVdVgWJEwp958iqfZfSC-29" target="ZVdVgWJEwp958iqfZfSC-31">
          <mxGeometry relative="1" as="geometry" />
        </mxCell>
        <mxCell id="ZVdVgWJEwp958iqfZfSC-29" value="&lt;font style=&quot;font-size: 24px;&quot;&gt;START&lt;/font&gt;" style="strokeWidth=2;html=1;shape=mxgraph.flowchart.terminator;whiteSpace=wrap;" vertex="1" parent="1">
          <mxGeometry x="1435" y="110" width="180" height="90" as="geometry" />
        </mxCell>
        <mxCell id="ZVdVgWJEwp958iqfZfSC-30" style="edgeStyle=orthogonalEdgeStyle;rounded=0;orthogonalLoop=1;jettySize=auto;html=1;exitX=0.5;exitY=1;exitDx=0;exitDy=0;entryX=0.5;entryY=0;entryDx=0;entryDy=0;" edge="1" parent="1" source="ZVdVgWJEwp958iqfZfSC-31" target="ZVdVgWJEwp958iqfZfSC-34">
          <mxGeometry relative="1" as="geometry" />
        </mxCell>
        <mxCell id="ZVdVgWJEwp958iqfZfSC-31" value="&lt;span style=&quot;font-size: 18px;&quot;&gt;Input &lt;b&gt;Nomor HP&lt;/b&gt;&lt;/span&gt;" style="shape=parallelogram;perimeter=parallelogramPerimeter;whiteSpace=wrap;html=1;fixedSize=1;" vertex="1" parent="1">
          <mxGeometry x="1400" y="280" width="250" height="100" as="geometry" />
        </mxCell>
        <mxCell id="ZVdVgWJEwp958iqfZfSC-32" style="edgeStyle=orthogonalEdgeStyle;rounded=0;orthogonalLoop=1;jettySize=auto;html=1;exitX=1;exitY=0.5;exitDx=0;exitDy=0;entryX=0;entryY=0.5;entryDx=0;entryDy=0;" edge="1" parent="1" source="ZVdVgWJEwp958iqfZfSC-34" target="ZVdVgWJEwp958iqfZfSC-39">
          <mxGeometry relative="1" as="geometry" />
        </mxCell>
        <mxCell id="ZVdVgWJEwp958iqfZfSC-49" style="edgeStyle=orthogonalEdgeStyle;rounded=0;orthogonalLoop=1;jettySize=auto;html=1;exitX=0.5;exitY=1;exitDx=0;exitDy=0;entryX=0.5;entryY=0;entryDx=0;entryDy=0;" edge="1" parent="1" source="ZVdVgWJEwp958iqfZfSC-34" target="ZVdVgWJEwp958iqfZfSC-40">
          <mxGeometry relative="1" as="geometry" />
        </mxCell>
        <mxCell id="ZVdVgWJEwp958iqfZfSC-34" value="&lt;font style=&quot;font-size: 18px;&quot;&gt;Cek &lt;b&gt;Nomor HP&lt;/b&gt;&lt;/font&gt;" style="rhombus;whiteSpace=wrap;html=1;" vertex="1" parent="1">
          <mxGeometry x="1445" y="440" width="160" height="160" as="geometry" />
        </mxCell>
        <mxCell id="ZVdVgWJEwp958iqfZfSC-35" value="&lt;font style=&quot;font-size: 18px;&quot;&gt;Tampilkan Pesan&lt;br&gt;&quot;Berhasil Masuk&quot;&lt;/font&gt;" style="shape=parallelogram;perimeter=parallelogramPerimeter;whiteSpace=wrap;html=1;fixedSize=1;" vertex="1" parent="1">
          <mxGeometry x="1400" y="1220" width="250" height="100" as="geometry" />
        </mxCell>
        <mxCell id="ZVdVgWJEwp958iqfZfSC-36" value="&lt;font style=&quot;font-size: 24px;&quot;&gt;STOP&lt;/font&gt;" style="strokeWidth=2;html=1;shape=mxgraph.flowchart.terminator;whiteSpace=wrap;" vertex="1" parent="1">
          <mxGeometry x="1435" y="1380" width="180" height="90" as="geometry" />
        </mxCell>
        <mxCell id="ZVdVgWJEwp958iqfZfSC-37" style="edgeStyle=orthogonalEdgeStyle;rounded=0;orthogonalLoop=1;jettySize=auto;html=1;exitX=0.5;exitY=1;exitDx=0;exitDy=0;entryX=0.5;entryY=0;entryDx=0;entryDy=0;entryPerimeter=0;" edge="1" parent="1" source="ZVdVgWJEwp958iqfZfSC-35" target="ZVdVgWJEwp958iqfZfSC-36">
          <mxGeometry relative="1" as="geometry" />
        </mxCell>
        <mxCell id="ZVdVgWJEwp958iqfZfSC-38" style="edgeStyle=orthogonalEdgeStyle;rounded=0;orthogonalLoop=1;jettySize=auto;html=1;exitX=0.5;exitY=0;exitDx=0;exitDy=0;entryX=1;entryY=0.5;entryDx=0;entryDy=0;" edge="1" parent="1" source="ZVdVgWJEwp958iqfZfSC-39" target="ZVdVgWJEwp958iqfZfSC-31">
          <mxGeometry relative="1" as="geometry">
            <Array as="points">
              <mxPoint x="1810" y="330" />
            </Array>
          </mxGeometry>
        </mxCell>
        <mxCell id="ZVdVgWJEwp958iqfZfSC-39" value="&lt;font style=&quot;font-size: 18px;&quot;&gt;Tampilkan Pesan&lt;br&gt;&quot;NomorTidak Terdaftar&quot;&lt;/font&gt;" style="shape=parallelogram;perimeter=parallelogramPerimeter;whiteSpace=wrap;html=1;fixedSize=1;" vertex="1" parent="1">
          <mxGeometry x="1685" y="470" width="310" height="100" as="geometry" />
        </mxCell>
        <mxCell id="ZVdVgWJEwp958iqfZfSC-48" style="edgeStyle=orthogonalEdgeStyle;rounded=0;orthogonalLoop=1;jettySize=auto;html=1;exitX=0.5;exitY=1;exitDx=0;exitDy=0;entryX=0.5;entryY=0;entryDx=0;entryDy=0;" edge="1" parent="1" source="ZVdVgWJEwp958iqfZfSC-40" target="ZVdVgWJEwp958iqfZfSC-42">
          <mxGeometry relative="1" as="geometry" />
        </mxCell>
        <mxCell id="ZVdVgWJEwp958iqfZfSC-40" value="&lt;font style=&quot;font-size: 18px;&quot;&gt;Kirim &lt;b&gt;OTP&lt;/b&gt; ke Pengguna&lt;/font&gt;" style="whiteSpace=wrap;html=1;aspect=fixed;" vertex="1" parent="1">
          <mxGeometry x="1465" y="650" width="120" height="120" as="geometry" />
        </mxCell>
        <mxCell id="ZVdVgWJEwp958iqfZfSC-44" style="edgeStyle=orthogonalEdgeStyle;rounded=0;orthogonalLoop=1;jettySize=auto;html=1;exitX=0.5;exitY=1;exitDx=0;exitDy=0;entryX=0.5;entryY=0;entryDx=0;entryDy=0;" edge="1" parent="1" source="ZVdVgWJEwp958iqfZfSC-41" target="ZVdVgWJEwp958iqfZfSC-35">
          <mxGeometry relative="1" as="geometry" />
        </mxCell>
        <mxCell id="ZVdVgWJEwp958iqfZfSC-45" style="edgeStyle=orthogonalEdgeStyle;rounded=0;orthogonalLoop=1;jettySize=auto;html=1;exitX=1;exitY=0.5;exitDx=0;exitDy=0;entryX=0;entryY=0.5;entryDx=0;entryDy=0;" edge="1" parent="1" source="ZVdVgWJEwp958iqfZfSC-41" target="ZVdVgWJEwp958iqfZfSC-43">
          <mxGeometry relative="1" as="geometry" />
        </mxCell>
        <mxCell id="ZVdVgWJEwp958iqfZfSC-41" value="&lt;font style=&quot;font-size: 18px;&quot;&gt;Cek &lt;b&gt;OTP&lt;/b&gt;&lt;/font&gt;" style="rhombus;whiteSpace=wrap;html=1;" vertex="1" parent="1">
          <mxGeometry x="1445" y="980" width="160" height="160" as="geometry" />
        </mxCell>
        <mxCell id="ZVdVgWJEwp958iqfZfSC-47" style="edgeStyle=orthogonalEdgeStyle;rounded=0;orthogonalLoop=1;jettySize=auto;html=1;exitX=0.5;exitY=1;exitDx=0;exitDy=0;entryX=0.5;entryY=0;entryDx=0;entryDy=0;" edge="1" parent="1" source="ZVdVgWJEwp958iqfZfSC-42" target="ZVdVgWJEwp958iqfZfSC-41">
          <mxGeometry relative="1" as="geometry" />
        </mxCell>
        <mxCell id="ZVdVgWJEwp958iqfZfSC-42" value="&lt;span style=&quot;font-size: 18px;&quot;&gt;Input &lt;b&gt;OTP&lt;/b&gt;&lt;/span&gt;" style="shape=parallelogram;perimeter=parallelogramPerimeter;whiteSpace=wrap;html=1;fixedSize=1;" vertex="1" parent="1">
          <mxGeometry x="1400" y="830" width="250" height="100" as="geometry" />
        </mxCell>
        <mxCell id="ZVdVgWJEwp958iqfZfSC-46" style="edgeStyle=orthogonalEdgeStyle;rounded=0;orthogonalLoop=1;jettySize=auto;html=1;exitX=0.5;exitY=0;exitDx=0;exitDy=0;entryX=1;entryY=0.5;entryDx=0;entryDy=0;" edge="1" parent="1" source="ZVdVgWJEwp958iqfZfSC-43" target="ZVdVgWJEwp958iqfZfSC-42">
          <mxGeometry relative="1" as="geometry">
            <Array as="points">
              <mxPoint x="1855" y="890" />
              <mxPoint x="1640" y="890" />
            </Array>
          </mxGeometry>
        </mxCell>
        <mxCell id="ZVdVgWJEwp958iqfZfSC-43" value="&lt;font style=&quot;font-size: 18px;&quot;&gt;Tampilkan Pesan&lt;br&gt;&quot;OTP Yang Anda Masukkan Salah&quot;&lt;/font&gt;" style="shape=parallelogram;perimeter=parallelogramPerimeter;whiteSpace=wrap;html=1;fixedSize=1;" vertex="1" parent="1">
          <mxGeometry x="1700" y="1010" width="310" height="100" as="geometry" />
        </mxCell>
      </root>
    </mxGraphModel>
  </diagram>
</mxfile>
